<?xml version="1.0" encoding="utf-8"?>
<svg xmlns="http://www.w3.org/2000/svg" xmlns:xlink="http://www.w3.org/1999/xlink" viewBox="0 0 309.448 256.005" width="309.448" height="256.005">
	<g>
		<path fill="rgb(244,107,23)" d="M 137.799 116.549 C 134.224 124.149 130.586 131.716 127.159 139.383 C 141.226 139.417 155.333 139.163 169.439 139.163 C 171.728 131.735 174.831 124.584 178.692 117.838 C 165.097 116.629 151.443 116.199 137.799 116.549 L 137.799 116.549 Z  M 97.918 0 C 123.505 9.11 152.959 -0.848 178.159 6.888 C 168.226 17.559 165.785 32.233 162.026 45.805 C 175.946 49.317 190.345 49.792 204.599 48.553 C 208.319 35.728 213.745 23.496 217.506 10.704 C 218.033 9.597 218.371 8.41 218.506 7.192 C 219.6 5.479 221.666 2.849 222.973 2.192 C 223.813 1.81 224.772 1.792 225.626 2.141 C 236.974 6.331 249.226 4.414 261.061 4.787 C 273.361 4.516 286.407 6.806 297.807 0.869 C 299.537 3.787 301.302 6.722 303.1 9.708 C 287.7 15.374 285.915 35.053 281.928 48.897 C 290.835 48.965 299.758 49.084 308.699 49.508 C 311.125 72.139 306.765 94.737 308.292 117.283 C 291.938 122.083 274.702 118.963 257.974 120.283 C 255.08 126.628 252.214 132.99 249.32 139.419 C 259.767 139.633 270.211 138.832 280.503 137.027 C 278.857 158.522 274.226 180.644 278.467 202.053 C 277.449 204.038 275.467 208.075 274.446 210.06 C 272.19 207.77 269.933 205.514 267.711 203.24 C 252.746 202.493 237.773 202.001 222.8 202.985 C 215.827 217.049 210.12 232.063 211.839 248.18 L 205.001 255.034 C 177.267 251.624 149.468 256.734 121.707 255.916 C 129.641 239.426 136.455 222.394 144.84 206.073 C 131.867 206.667 118.88 206.853 105.948 206.836 C 93.576 220.968 87.707 238.866 79.588 255.491 C 58.441 255.152 37.349 255.491 16.241 255.186 C 14.589 254.372 11.321 252.743 9.655 251.963 C 13.867 235.982 22.974 221.952 28.92 206.633 C 19.253 206.939 9.628 207.719 0.002 208.633 C 8.002 198.25 4.615 184.712 5.521 172.667 C 6.099 161.797 5.175 150.899 2.776 140.281 C 19.361 138.481 36.029 140.858 52.614 139.263 C 54.869 132.426 57.242 125.657 59.643 118.922 C 46.561 120.279 45.175 121.433 32.628 122.213 C 32.589 121.178 32.455 117.344 32.562 116.292 C 32.682 97.664 34.23 79.139 35.282 60.592 C 35.603 57.385 35.095 55.91 35.163 53.551 C 53.175 53.11 64.495 53.364 82.481 51.515 C 85.109 39.741 89.669 28.578 93.948 17.364 C 96.242 13.276 93.868 9.136 92.508 5.264 C 95.015 2.821 95.416 2.431 97.922 -0.012" />
	</g>
</svg>